<?xml version="1.0" encoding="UTF-8"?>
<!DOCTYPE svg PUBLIC "-//W3C//DTD SVG 1.1//EN" "http://www.w3.org/Graphics/SVG/1.1/DTD/svg11.dtd">
<svg xmlns="http://www.w3.org/2000/svg" version="1.1" width="512px" height="512px" style="shape-rendering:geometricPrecision; text-rendering:geometricPrecision; image-rendering:optimizeQuality; fill-rule:evenodd; clip-rule:evenodd" xmlns:xlink="http://www.w3.org/1999/xlink">
<g><path style="opacity:0.994" fill="#feda67" d="M 152.5,71.5 C 152.5,157.167 152.5,242.833 152.5,328.5C 139.078,329.759 130.245,336.759 126,349.5C 125.667,375.167 125.333,400.833 125,426.5C 123.61,432.891 119.776,437.058 113.5,439C 79.1667,439.667 44.8333,439.667 10.5,439C 5.40601,437.401 1.73934,434.234 -0.5,429.5C -0.5,350.5 -0.5,271.5 -0.5,192.5C 1.26762,190.492 2.93429,188.326 4.5,186C 51.5452,147.953 98.8785,110.286 146.5,73C 148.436,72.187 150.436,71.687 152.5,71.5 Z"/></g>
<g><path style="opacity:0.998" fill="#fb1b5a" d="M 306.5,108.5 C 337.731,134.461 369.398,159.961 401.5,185C 404.433,187.264 406.6,190.098 408,193.5C 408.667,271.5 408.667,349.5 408,427.5C 406.007,433.325 402.174,437.325 396.5,439.5C 361.833,439.5 327.167,439.5 292.5,439.5C 299.606,438.005 304.106,433.672 306,426.5C 306.667,349.5 306.667,272.5 306,195.5C 304.014,190.504 300.847,186.337 296.5,183C 265.58,158.387 234.913,133.554 204.5,108.5C 218.689,96.1514 233.356,84.3181 248.5,73C 255.942,70.5278 262.609,71.8612 268.5,77C 281.065,87.7415 293.732,98.2415 306.5,108.5 Z"/></g>
<g><path style="opacity:0.993" fill="#1b3259" d="M 511.5,192.5 C 511.5,271.5 511.5,350.5 511.5,429.5C 509.261,434.234 505.594,437.401 500.5,439C 465.835,439.5 431.168,439.667 396.5,439.5C 402.174,437.325 406.007,433.325 408,427.5C 408.667,349.5 408.667,271.5 408,193.5C 406.6,190.098 404.433,187.264 401.5,185C 369.398,159.961 337.731,134.461 306.5,108.5C 320.959,97.2134 335.292,85.7134 349.5,74C 358.034,70.0609 365.701,71.3942 372.5,78C 417.167,114 461.833,150 506.5,186C 508.066,188.326 509.732,190.492 511.5,192.5 Z"/></g>
<g><path style="opacity:1" fill="#ffb52c" d="M 152.5,71.5 C 153.791,71.2627 154.791,71.596 155.5,72.5C 153.503,157.16 152.836,242.16 153.5,327.5C 154.791,327.263 155.791,327.596 156.5,328.5C 155.167,328.5 153.833,328.5 152.5,328.5C 152.5,242.833 152.5,157.167 152.5,71.5 Z"/></g>
<g><path style="opacity:1" fill="#fea818" d="M 155.5,72.5 C 158.928,72.5465 161.928,73.7132 164.5,76C 177.681,87.0811 191.014,97.9145 204.5,108.5C 234.913,133.554 265.58,158.387 296.5,183C 300.847,186.337 304.014,190.504 306,195.5C 306.667,272.5 306.667,349.5 306,426.5C 304.106,433.672 299.606,438.005 292.5,439.5C 259.165,439.667 225.832,439.5 192.5,439C 186.764,437.598 182.931,434.098 181,428.5C 180.955,401.793 180.289,375.126 179,348.5C 175.41,337.408 167.91,330.742 156.5,328.5C 155.791,327.596 154.791,327.263 153.5,327.5C 152.836,242.16 153.503,157.16 155.5,72.5 Z"/></g>
</svg>
